<svg height="25.677" viewBox="0 0 25.677 25.677" width="25.677" xmlns="http://www.w3.org/2000/svg"><path d="m0 0h25.677v25.677h-25.677z" fill="none"/><path d="m22.467 6.349h-3.391l-1.958-2.139h-6.418v2.14h5.478l1.958 2.14h4.333v12.838h-17.12v-9.628h-2.139v9.629a2.146 2.146 0 0 0 2.14 2.14h17.117a2.146 2.146 0 0 0 2.14-2.14v-12.84a2.146 2.146 0 0 0 -2.14-2.14zm-13.908 8.559a5.349 5.349 0 1 0 5.349-5.349 5.351 5.351 0 0 0 -5.349 5.349zm5.349-3.21a3.21 3.21 0 1 1 -3.21 3.21 3.219 3.219 0 0 1 3.21-3.208zm-8.559-5.349h3.21v-2.139h-3.21v-3.21h-2.139v3.21h-3.21v2.14h3.21v3.21h2.14z" fill="#a490ec" transform="translate(0 .07)"/></svg>