<svg height="28.338" viewBox="0 0 28.338 28.338" width="28.338" xmlns="http://www.w3.org/2000/svg"><g stroke="#a490ec"><g fill="#fff" stroke-linecap="round" stroke-linejoin="round" stroke-width="2.6" transform="matrix(.70710678 -.70710678 .70710678 .70710678 0 14.17)"><path d="m0 0h20.038v20.038h-20.038z" stroke="none"/><path d="m1.3 1.3h17.438v17.438h-17.438z" fill="none"/></g><g fill="#a490ec"><path d="m0 0h14v14h-14z" opacity="0" transform="matrix(0 -1 1 0 6.669 20.839)"/><path d="m13.7 8.194-2.354-2.943a.589.589 0 0 0 -.918.73l1.589 1.99h-5.251a1.766 1.766 0 0 0 -1.766 1.766v2.943a.589.589 0 0 0 1.177 0v-2.943a.589.589 0 0 1 .589-.589h5.251l-1.589 1.99a.587.587 0 1 0 .918.73l2.354-2.944a.589.589 0 0 0 0-.73z" transform="translate(4.612 4.627)"/></g></g></svg>