<svg height="30" viewBox="0 0 30 30" width="30" xmlns="http://www.w3.org/2000/svg"><g fill="#a490ec"><path d="m0 0h30v30h-30z" opacity="0"/><rect height="3" rx="1" width="20" x="5" y="22"/><rect height="3" rx="1" transform="matrix(0 -1 1 0 5 25)" width="5"/><rect height="2" rx="1" transform="matrix(0 -1 1 0 23 25)" width="5"/><path d="m13.273 16.272a1.254 1.254 0 0 1 -.728-.226l-5.018-3.537a1.255 1.255 0 1 1 1.455-2.045l4.29 3 4.265-3.211a1.254 1.254 0 1 1 1.505 2.007l-5.018 3.763a1.254 1.254 0 0 1 -.753.251z" transform="translate(1.781 2.438)"/><path d="m12.254 15.545a1.254 1.254 0 0 1 -1.254-1.255v-10.036a1.254 1.254 0 1 1 2.509 0v10.036a1.254 1.254 0 0 1 -1.255 1.255z" transform="translate(2.799 .656)"/></g></svg>