<svg height="12.955" viewBox="0 0 93.295 12.955" width="93.295" xmlns="http://www.w3.org/2000/svg"><g fill="#ffc642"><path d="m7.483.45-1.652 3.35-3.7.539a.81.81 0 0 0 -.444 1.381l2.674 2.606-.632 3.681a.809.809 0 0 0 1.174.853l3.307-1.738 3.307 1.738a.81.81 0 0 0 1.174-.853l-.632-3.681 2.672-2.606a.81.81 0 0 0 -.448-1.381l-3.7-.539-1.648-3.35a.81.81 0 0 0 -1.452 0z" transform="translate(-1.441 .001)"/><path d="m7.483.45-1.652 3.35-3.7.539a.81.81 0 0 0 -.444 1.381l2.674 2.606-.632 3.681a.809.809 0 0 0 1.174.853l3.307-1.738 3.307 1.738a.81.81 0 0 0 1.174-.853l-.632-3.681 2.672-2.606a.81.81 0 0 0 -.448-1.381l-3.7-.539-1.648-3.35a.81.81 0 0 0 -1.452 0z" transform="translate(18.498 .001)"/><path d="m7.483.45-1.652 3.35-3.7.539a.81.81 0 0 0 -.444 1.381l2.674 2.606-.632 3.681a.809.809 0 0 0 1.174.853l3.307-1.738 3.307 1.738a.81.81 0 0 0 1.174-.853l-.632-3.681 2.672-2.606a.81.81 0 0 0 -.448-1.381l-3.7-.539-1.648-3.35a.81.81 0 0 0 -1.452 0z" transform="translate(38.438 .001)"/></g><path d="m7.483.45-1.652 3.35-3.7.539a.81.81 0 0 0 -.444 1.381l2.674 2.606-.632 3.681a.809.809 0 0 0 1.174.853l3.307-1.738 3.307 1.738a.81.81 0 0 0 1.174-.853l-.632-3.681 2.672-2.606a.81.81 0 0 0 -.448-1.381l-3.7-.539-1.648-3.35a.81.81 0 0 0 -1.452 0z" fill="#e0e0e0" transform="translate(58.378 .001)"/><path d="m7.483.45-1.652 3.35-3.7.539a.81.81 0 0 0 -.444 1.381l2.674 2.606-.632 3.681a.809.809 0 0 0 1.174.853l3.307-1.738 3.307 1.738a.81.81 0 0 0 1.174-.853l-.632-3.681 2.672-2.606a.81.81 0 0 0 -.448-1.381l-3.7-.539-1.648-3.35a.81.81 0 0 0 -1.452 0z" fill="#e0e0e0" transform="translate(78.318 .001)"/></svg>