<svg height="7.48" viewBox="0 0 16.133 7.48" width="16.133" xmlns="http://www.w3.org/2000/svg" xmlns:xlink="http://www.w3.org/1999/xlink"><linearGradient id="a" gradientUnits="objectBoundingBox" x1=".5" x2=".5" y2="1"><stop offset="0" stop-color="#a58fed"/><stop offset="1" stop-color="#b1c4f8"/></linearGradient><path d="m15.975 10.286a.55.55 0 0 1 -.43.161l-2.518-.183a.547.547 0 1 1 .08-1.091l1.046.076-3.686-3.678-4.287 3.617a.55.55 0 0 1 -.743-.031l-5.276-5.257a.548.548 0 0 1 .776-.773l4.919 4.9 4.287-3.617a.55.55 0 0 1 .743.031l4.028 4.019-.083-1a.547.547 0 0 1 .5-.59h.046a.548.548 0 0 1 .546.5l.207 2.487a.546.546 0 0 1 -.155.429z" fill="url(#a)" transform="translate(0 -2.967)"/></svg>