<svg height="17" viewBox="0 0 17 17" width="17" xmlns="http://www.w3.org/2000/svg" xmlns:xlink="http://www.w3.org/1999/xlink"><linearGradient id="a" gradientUnits="objectBoundingBox" x1=".5" x2=".5" y2="1"><stop offset="0" stop-color="#a58fed"/><stop offset="1" stop-color="#b1c4f8"/></linearGradient><g fill="url(#a)"><path d="m0 0h17v17h-17z" opacity="0" transform="matrix(-1 0 0 -1 17 17)"/><path d="m8.974 2a6.974 6.974 0 1 0 6.974 6.974 6.974 6.974 0 0 0 -6.974-6.974zm2.79 7.672h-2.79a.7.7 0 0 1 -.7-.7v-2.787a.7.7 0 1 1 1.395 0v2.092h2.092a.7.7 0 1 1 0 1.395z" transform="translate(-.344 -.344)"/></g></svg>