<svg height="33" viewBox="0 0 138 33" width="138" xmlns="http://www.w3.org/2000/svg" xmlns:xlink="http://www.w3.org/1999/xlink"><linearGradient id="a" gradientUnits="objectBoundingBox" x1=".099" x2=".976" y2="1.104"><stop offset="0" stop-color="#a58fed"/><stop offset="1" stop-color="#b1c4f8"/></linearGradient><rect fill="url(#a)" height="33" rx="8" width="138"/><text fill="#fff" font-family="Poppins-SemiBold, Poppins" font-size="12" font-weight="600" transform="translate(46 20.617)"><tspan x="0" y="0">Promenade</tspan></text><g transform="translate(16.6 6.217)"><path d="m0 0h18.159v18.159h-18.159z" fill="none"/><g fill="#fff"><circle cx="3.4" cy="7.4" r="2"/><circle cx="6.81" cy="4.162" r="1.892"/><circle cx="11.35" cy="4.162" r="1.892"/><circle cx="14.4" cy="7.4" r="2"/><path d="m14.092 13.8c-.658-.772-1.211-1.43-1.876-2.2a3.21 3.21 0 0 0 -1.324-1 1.532 1.532 0 0 0 -.25-.068 3.808 3.808 0 0 0 -.59-.03 3.174 3.174 0 0 0 -.6.038 1.532 1.532 0 0 0 -.25.068 3.26 3.26 0 0 0 -1.324 1c-.658.772-1.211 1.43-1.876 2.2-.991.991-2.209 2.088-1.982 3.624a2.376 2.376 0 0 0 1.763 1.755c.552.113 2.315-.333 4.192-.333h.136c1.876 0 3.639.439 4.192.333a2.387 2.387 0 0 0 1.763-1.755c.235-1.544-.984-2.641-1.975-3.632z" transform="translate(-.972 -2.555)"/></g></g></svg>