<svg height="10.949" viewBox="0 0 16.133 10.949" width="16.133" xmlns="http://www.w3.org/2000/svg" xmlns:xlink="http://www.w3.org/1999/xlink"><linearGradient id="a" gradientUnits="objectBoundingBox" x1=".5" x2=".5" y2="1"><stop offset="0" stop-color="#a58fed"/><stop offset="1" stop-color="#b1c4f8"/></linearGradient><g fill="url(#a)"><path d="m15.975 3.129a.55.55 0 0 0 -.43-.161l-2.518.183a.547.547 0 1 0 .08 1.091l1.046-.076-3.686 3.678-4.287-3.617a.55.55 0 0 0 -.743.031l-5.276 5.256a.548.548 0 0 0 .776.773l4.919-4.9 4.287 3.613a.55.55 0 0 0 .743-.031l4.028-4.019-.083 1a.547.547 0 0 0 .5.59h.046a.548.548 0 0 0 .546-.5l.207-2.487a.546.546 0 0 0 -.155-.424z" transform="translate(0 -2.968)"/><path d="m4.413 21.322 4.018-3.962 4.518 3.74 3.877-3.867.083 6.938h-12.496z" transform="translate(-2.594 -13.223)"/></g></svg>